<?xml version="1.0" encoding="utf-8"?>
<!-- Generator: Adobe Illustrator 21.0.2, SVG Export Plug-In . SVG Version: 6.00 Build 0)  -->
<svg version="1.1" id="Layer_1" xmlns="http://www.w3.org/2000/svg" xmlns:xlink="http://www.w3.org/1999/xlink" x="0px" y="0px"
	 viewBox="0 0 80 80" style="enable-background:new 0 0 80 80;" xml:space="preserve">
<style type="text/css">
	.st0{fill:#EC9B00;}
	.st1{fill:#5D5A58;}
</style>
<g>
	<g>
		<path class="st0" d="M40,2.6c20.6,0,37.4,16.8,37.4,37.4S60.6,77.4,40,77.4S2.6,60.6,2.6,40S19.4,2.6,40,2.6 M40,0.5
			C18.2,0.5,0.5,18.2,0.5,40S18.2,79.5,40,79.5S79.5,61.8,79.5,40S61.8,0.5,40,0.5L40,0.5z"/>
	</g>
</g>
<g>
	<path class="st0" d="M40,6.6c18.4,0,33.4,15,33.4,33.4S58.4,73.4,40,73.4S6.6,58.4,6.6,40C6.6,21.6,21.6,6.6,40,6.6 M40,5.6
		C21,5.6,5.6,21,5.6,40S21,74.4,40,74.4S74.4,59,74.4,40S59,5.6,40,5.6L40,5.6z"/>
</g>
<path class="st1" d="M19.1,25.1L19.1,25.1c0-0.1,0-0.2,0.1-0.3c0.1-0.1,0.3-0.1,0.3-0.1l0.1,0l2.9,0l0.1,0c0,0,0.2,0,0.3,0.1
	c0.1,0.1,0.1,0.3,0.1,0.3l0,0.1l-0.2,29.3c0,2.1,1.2,4.2,4,4.8c0.4,0.1,4.1,0.2,4.6,0.2c0,0,0.1,0,0.1,0c0.1,0,0.1,0,0.3,0.1
	c0.1,0.1,0.1,0.3,0.1,0.3l0,0.1l0,2.7l0,0.2c0,0,0,0.1-0.1,0.2c-0.1,0.1-0.3,0.1-0.3,0.1c-0.1,0-0.1,0-0.2,0c-0.4,0-4.1,0-4.4-0.1
	c-5.5-0.7-7.9-4.4-7.9-7.7L19.1,25.1z"/>
<path class="st1" d="M42.2,24.8c-0.1-0.1-0.3-0.1-0.3-0.1l-0.1,0l-6,0l0-11l0-0.1c0,0,0-0.2-0.1-0.3c-0.1-0.1-0.3-0.1-0.3-0.1
	l-0.1,0l-2.9,0l-0.1,0c0,0-0.2,0-0.3,0.1c-0.1,0.1-0.1,0.3-0.1,0.3l-0.1,0.2l-0.1,30.2c0,3.5,2.7,7.5,9,7.8c0.1,0,0.1,0,0.2,0
	c0.1,0,0.2,0,0.3-0.1c0.1-0.1,0.1-0.2,0.1-0.2l0-0.2l0-2.7l0-0.1c0,0,0-0.1-0.1-0.3c-0.1-0.1-0.2-0.1-0.3-0.1c0,0-0.1,0-0.1,0
	c-3.6-0.2-5.2-2.6-5.2-5l0.1-14.4l6.1,0l0.1,0c0,0,0.2,0,0.3-0.1c0.1-0.1,0.1-0.3,0.1-0.3l0-0.1l0-2.8l0-0.1
	C42.3,25,42.3,24.9,42.2,24.8z"/>
<path class="st1" d="M60.8,25.2l0-0.1c0,0,0-0.2-0.1-0.3c-0.1-0.1-0.3-0.1-0.3-0.1l-0.1,0l-2.9,0l-0.1,0c0,0-0.2,0-0.3,0.1
	c-0.1,0.1-0.1,0.3-0.1,0.3l0,0.1l-0.1,19c0,0,0,0.2-0.1,0.3c-0.2,0.1-0.4,0.1-0.5,0c0,0-0.1,0-0.1-0.1c-1.7-1.3-3.8-2-6.1-2
	c-5.7,0-10.4,4.6-10.4,10.3c0,5.7,4.6,10.4,10.3,10.5c2.3,0,4.4-0.7,6.1-1.9c0,0,0.1-0.1,0.1-0.1c0.1-0.1,0.3-0.1,0.5,0
	c0.1,0.1,0.1,0.3,0.1,0.3l0,0.2l0,1.1l0,0.1c0,0,0,0.2,0.1,0.3c0.1,0.1,0.3,0.1,0.3,0.1l0.1,0l2.8,0l0.2,0c0,0,0.2,0,0.3-0.1
	c0.1-0.1,0.1-0.3,0.1-0.3L60.8,25.2z M50,59.5c-3.7,0-6.7-3.1-6.7-6.8c0-3.7,3.1-6.7,6.8-6.7c3.7,0,6.7,3.1,6.7,6.8
	C56.7,56.5,53.7,59.5,50,59.5z"/>
</svg>
