<?xml version="1.0" encoding="UTF-8"?>
<svg id="Layer_1" data-name="Layer 1" xmlns="http://www.w3.org/2000/svg" version="1.1" viewBox="0 0 816 161">
  <defs>
    <style>
      .cls-1 {
        fill: #cecdcc;
        stroke-width: 0px;
      }
    </style>
  </defs>
  <path class="cls-1" d="M30.5,2v130.1h48.3v26.2H0V2h30.5Z"/>
  <path class="cls-1" d="M197.3,125.5h-63l-13.8,32.8h-33L154.7,2h23.9l65.4,156.3h-32.8l-13.9-32.8ZM188.4,100.7l-22.3-56.2-22.3,56.2h44.6Z"/>
  <path class="cls-1" d="M287.8,2v98.2c0,12,4,19.2,7.5,23.2,4.5,5.4,12.7,10.8,24.8,10.8s20.4-5.4,24.8-10.8c3.5-4,7.5-11.2,7.5-23.2V2h30.5v95.6c0,14.8-2.3,29.8-11.7,41.7-11.2,14.8-30.9,22.5-51.1,22.5s-39.8-7.7-51.1-22.5c-9.4-12-11.7-26.9-11.7-41.7V2h30.5Z"/>
  <path class="cls-1" d="M463.8,2c21.6,0,32.6,5.6,39.8,11.7,12,10.1,15.5,23.4,15.5,35.2s-6.1,28.6-18.3,36.8c-4,2.8-9.6,5.4-17.1,6.8l48.7,65.9h-38l-41.7-62.8h-3.7v62.8h-30.5V2h45.3ZM449,73.9h8.7c5.9,0,30-.7,30-23.7s-23.9-23.4-29.5-23.4h-9.2v47.1Z"/>
  <path class="cls-1" d="M639.8,28.2h-56.2v34.9h53.9v26.2h-53.9v42.7h56.2v26.2h-86.7V2h86.7v26.2Z"/>
  <path class="cls-1" d="M669.3,158.3V2h21.1l95.1,104.3V2h30.5v156.3h-21.1l-95.2-104.5v104.5h-30.4Z"/>
</svg>