<?xml version="1.0" encoding="utf-8"?>
<!-- Generator: Adobe Illustrator 25.4.1, SVG Export Plug-In . SVG Version: 6.00 Build 0)  -->
<svg version="1.1" id="Layer_1" xmlns="http://www.w3.org/2000/svg" xmlns:xlink="http://www.w3.org/1999/xlink" x="0px" y="0px"
	 viewBox="0 0 80 80" style="enable-background:new 0 0 80 80;" xml:space="preserve">
<style type="text/css">
	.st0{fill:#FFFFFF;}
</style>
<path class="st0" d="M78.9,38.9c-0.4-0.2-0.9-0.3-1.3-0.4c-0.1,0-0.2,0-0.2,0c-0.1,0-0.1,0-0.2,0c-0.1,0-0.1-0.1-0.1-0.2
	c0-0.1,0-0.1,0-0.2c0.2-1.4,0.4-2.7,0.7-4.7C82.6-1,69.4,1.6,67.5,2.7c-1.9,1.1-2.3,1.6-2.9,3.1c-1.4,3.7,1.6,4.2,2.8,3.5
	s1.4-2.2,0.9-3.3c-0.1-0.3-0.1-0.8,0-1.1c1.1-2.8,9.7-0.3,8.8,9.8c-0.4,3.5-0.6,5-1,7.5c-0.9,5.7-2,11.1-3,15.7
	c0,0.1-0.1,0.2-0.3,0.2c-0.7,0-1.1,0.1-1.7,0.2c-0.5,0.1-2.4,0.1-7.1,1.9c-4.7,1.8-11.9,6.5-17.5,7.1c-2.1,0.2-3.2-0.2-4.5-0.6
	c-0.1,0-0.2-0.2-0.2-0.3l1.3-5.9L47,23.7c0-0.2-0.2-0.4-0.4-0.3L42.4,25c-0.1,0.1-0.1,0.1-0.2,0.2l-1.6,7.6c0,0,0,0,0,0
	c0,0.1-0.1,0.1-0.2,0.1c0,0,0,0-0.1,0c-2.4,0.2-3.8,1.9-4.6,3.8c-0.7,1.7-1.3,6,2,9.3c0.1,0.1,0.1,0.2,0.1,0.2L35.7,57l-2.3,10.2
	c-0.3,1.2-0.4,2.3-0.6,3.3c0,0.2,0,0.3-0.1,0.5c0,0.3-0.1,0.4-0.2,0.5s-0.4,0.4-0.4,0.4c-1.6,1.7-2.3,2.3-3.5,3.3
	c-3.4,2.7-7.9,2.3-8.2-0.9c-0.2-2.9,0.6-8.3,1.2-11.7l0.1-0.4c0.4-0.7,0.8-1.5,1.1-2.2c1.9-3.6,3.6-6.8,4.2-8
	c2.2-4.4,4.4-8.8,6.4-13.2c1.9-4.1,3.7-8.3,5.4-12.6c1.6-4.2,3.1-8.5,3.8-13c0.4-2.2,0.6-4.3,0.2-6.4c-0.3-1.9-1.1-4.4-3.2-4.6
	c-2.1-0.1-4.1,1.8-5.3,3.2c-3.6,4.2-5.3,9.6-6.9,14.7c-4.3,14.8-8.6,29.8-9.8,45.3c0,0.5,0,0.7-0.1,1.4c-0.1,0.7-0.1,1.9-0.6,3
	s-1.1,2.1-2.4,3.3S11,75.8,9.4,76c-2.3,0.4-3.3-0.2-4.6-2.9C3.3,70-1.4,73,1.3,76.6C1.8,77.2,2.4,77.7,3,78c1.6,0.8,4.4,0.8,7-0.3
	c2.3-1,4.1-3,5-4c0.6-0.8,1.3-1.6,1.9-2.5c0.1-0.1,0.2-0.3,0.3-0.4c0.2-0.3,0.5-0.3,0.5,0.1c0,0.1,0,0.2,0,0.4
	c0.1,1.2,0.3,2.5,0.4,3.6c0.6,3.8,3.9,4.1,6.7,3.5c0.4-0.1,0.8-0.2,1.2-0.3c2.7-0.8,4.8-2.9,6.1-4.3c0.1-0.1,0.1-0.1,0.2-0.2
	c0.2-0.2,0.4-0.2,0.5,0.2c0,0.1,0,0.1,0,0.2c0.2,1.2,0.6,2.3,1.4,3.1c1,1.1,2.3,1.6,3.9,1.6c1.3,0,2.6-0.5,4-1.5
	c1.1-0.8,2.4-2.1,3.9-3.8c0,0,0.1-0.1,0.1-0.1c0.2-0.3,0.4-0.3,0.5,0.1c0,0,0,0.1,0,0.1c0.3,1.2,0.7,2.2,1.4,3.1
	c1.1,1.4,2.7,2.1,4.6,2.1c12.5,0,20.8-19.5,24.3-38.8c0-0.2,0.1-0.4,0.1-0.6c0,0,0.1-0.1,0.2-0.1c0.1,0,0.1,0,0.2,0
	c0.5,0.1,1,0.2,1.5,0.3C80.1,39.8,79.9,39.3,78.9,38.9z M22.4,59.2c0-0.1,0-0.2,0.1-0.3c3.7-17.5,7.1-35.6,13.8-52.2
	c0.6-1.3,2.4-4.6,4.3-3.2c1.3,0.9,1.6,3,1.8,4.5c0.3,4.5-1.2,9-2.5,13.1c-2.9,8.6-6.7,16.8-10.6,24.9c-0.9,1.8-1.8,3.5-2.7,5.3
	c-0.4,0.7-1.9,3.9-3.8,7.7c0,0.1-0.1,0.2-0.1,0.2C22.5,59.4,22.3,59.3,22.4,59.2z M37.8,34.9c0.6-0.6,1.6-1.2,2.6-1.3c0,0,0,0,0.1,0
	c0.1,0,0.1,0,0.1,0.1c0,0,0,0.1,0,0.1L39,40.6l-0.7,3.5c0,0,0,0,0,0.1c0,0-0.1,0.1-0.1,0c0,0,0-0.1-0.1-0.1
	C35.8,41.3,35.6,37.1,37.8,34.9z M68.8,55.8c-1.6,8.3-8.1,23.4-16,20.8c-6.4-2.3,0.7-20.5,6.3-24.6c1.6-1.3,3.3-2.1,4.9-2.1
	c1.1,0,2.1,0.3,3.1,0.8c1,0.6,1.9,1.7,2.2,2.6L68.8,55.8z M70,50.4c-0.1,0.4-0.5,0.3-0.6,0.2c-0.1-0.1-0.2-0.1-0.2-0.2
	c-1.6-1.4-3.5-1.9-5.3-1.9c-2.7,0-5.5,1.1-8.2,3.4c-2.7,2.2-5,5.1-6.8,8.6c-1.7,3.4-2.6,6.7-2.7,10.1c0,0.1,0,0.1,0,0.2
	c0,0.4-0.1,0.5-0.2,0.6c-0.1,0.1-0.1,0.1-0.1,0.1l-0.2,0.2c-1.6,1.7-2.7,2.7-3.5,3.3c-3.5,2.5-4.8,1.7-5.4,0.9
	c-0.6-0.7-0.8-1.3-0.5-3.3c0.1-0.8,0.4-3,0.8-4.9l2.3-10.2l2-9c0-0.2,0.2-0.3,0.4-0.2c1.2,0.4,2.3,0.5,4.5,0.3
	c2.1-0.2,5.1-1.2,9.4-3.4c4.3-2.3,9-4.6,11.3-5.3c1.8-0.5,3.6-0.9,5.5-1.1c0.2,0,0.3,0.2,0.3,0.4c-1.2,5.3-2.2,9.3-2.7,11
	C70,50.2,70,50.3,70,50.4z"/>
</svg>
