<?xml version="1.0" encoding="utf-8"?>
<!-- Generator: Adobe Illustrator 25.4.1, SVG Export Plug-In . SVG Version: 6.00 Build 0)  -->
<svg version="1.1" id="Layer_1" xmlns="http://www.w3.org/2000/svg" xmlns:xlink="http://www.w3.org/1999/xlink" x="0px" y="0px"
	 viewBox="0 0 109.9 104.8" style="enable-background:new 0 0 109.9 104.8;" xml:space="preserve">
<style type="text/css">
	.st0{fill:#282828;}
	.st1{fill:#FFFFFF;}
</style>
<path class="st0" d="M67.2,96.1c-2.8,0-5.3-0.8-7.3-2.4c-2.4,1.6-4.8,2.4-7.2,2.4c-2.7,0-5.1-0.8-7-2.3c-1,0.6-2.2,1.1-3.4,1.5
	l-0.2,0.1l-1.4,0.4c-1.2,0.2-2.3,0.4-3.4,0.4c-3.1,0-5.7-1.1-7.6-2.9c-0.8,0.6-1.7,1.1-2.7,1.5c-2.1,0.9-4.4,1.4-6.6,1.4
	c-2.1,0-3.9-0.4-5.5-1.2c-1.3-0.7-2.6-1.7-3.6-2.9L11.2,92l-0.1-0.1C8.9,88.6,8.5,85,10,82c1.4-2.9,4.4-4.7,7.5-4.7
	c1.8,0,3.5,0.6,4.9,1.7c0.3,0.2,0.5,0.5,0.8,0.7c0.7,0.8,2,0.5,2.5-0.6c0.1-0.2,0.1-0.5,0.2-0.7c0.3-1.2,0.5-2.7,0.7-4.3
	c0.1-0.5,0.1-1.1,0.2-1.6c0.2-2,1.9-13.1,2.7-16.9c0.1-0.6,0.3-1.2,0.4-1.8c1.9-8.3,4.2-16.3,6.4-23.8v-0.1
	c1.7-5.5,3.7-11.7,8.1-16.8c3-3.5,6.3-5.3,9.7-5.3h0.5h0.2c2.1,0.2,7.3,1.5,8.6,9.6c0.6,3.2,0.2,6.2-0.2,8.4
	c-0.2,1.1-0.4,2.2-0.6,3.3c2.9,0.6,5.1,3.1,5.1,6.2v0.6l-0.1,0.7l-3.6,15.4c2.1-0.8,4.6-2,6.7-3.1s4.1-2,5.9-2.7
	c2.8-1.1,4.8-1.6,6.2-1.9c0.7-3.2,1.4-7.2,2.1-11.4c0.4-2.4,0.6-3.8,1-7.2v-0.1c-0.2,0.2-0.5,0.3-0.7,0.5c-1.2,0.7-2.6,1.1-4.1,1.1
	c-2.7,0-5.2-1.3-6.7-3.4c-0.6-0.9-1.3-2.4-1.4-4.4c0-0.2,0-0.4,0-0.7C72.9,13,77.5,7.3,85.2,7.7c0.3,0,0.5,0,0.8,0.1
	c3.2,0.4,6,1.9,8.2,4.4c5.1,5.9,6.5,16.9,4.2,33.6l-0.1,0.6c1.9,1.7,2.3,4,2,5.8c-0.4,2.1-1.8,3.7-3.7,4.5
	C93.7,69.6,85.6,96.1,67.2,96.1z"/>
<path class="st1" d="M67.2,90.6c-2.1,0-3.8-0.8-5-2.3c-0.6-0.8-1.1-1.7-1.4-3C59.2,87,58,88.2,57,89c-1.5,1.1-2.9,1.6-4.3,1.6
	c-1.8,0-3.2-0.6-4.3-1.8c-0.7-0.7-1.2-1.8-1.5-3.2c-0.6,0.6-1.3,1.3-2,1.9c-1.2,1-3.8,2.9-7.6,3c-0.4,0-0.8,0-1.2-0.1
	c-1.5-0.2-2.6-1-3.3-2.2c-0.1-0.2-0.2-0.4-0.3-0.6c-0.4-1.1-0.9-2.6-0.7-4.6c-0.3,0.5-2.1,2.7-2.2,2.9c-0.1,0.1-0.2,0.3-0.4,0.4
	c-1,1.1-2.6,2.6-4.5,3.5c-1.4,0.6-2.9,0.9-4.4,0.9c-1.2,0-2.2-0.2-3.1-0.6c-0.7-0.3-1.3-0.9-1.9-1.5c-1-1.3-1.2-2.7-0.6-3.9
	c0.5-1,1.6-1.7,2.6-1.7s1.8,0.6,2.3,1.6c1.1,2.3,1.9,2.7,3,2.7c0.3,0,0.6,0,1-0.1c1.4-0.2,3.5-1.5,4.8-2.8c0.7-0.6,1.2-1.3,1.6-1.9
	c0.1-0.2,0.2-0.3,0.3-0.5c0.8-1.4,1.2-5.7,1.2-6.1c1.7-15.6,6.1-31,10.1-44.5c1.6-5.2,3.3-10.6,7-14.9c1-1.2,2.5-2.6,4.1-3.1
	c0.1,0,0.2-0.1,0.3-0.1c0.9-0.2,2-0.1,2.8,0.4c0.1,0.1,0.2,0.1,0.3,0.2c0.9,0.8,1.6,2.2,1.9,4.2c0.4,2.3,0.1,4.6-0.2,6.6
	c-0.7,4.3-2,8.3-3.8,13.1c-1.7,4.3-3.5,8.5-5.4,12.6c-2,4.4-4.2,8.9-6.4,13.2c-0.5,1-1.7,3.3-3.1,5.9L38,71.6
	c-0.3,0.7-0.7,1.5-1.1,2.2l-0.1,0.3c-0.4,2.4-1.4,8.4-1.2,11.5c0.1,1.4,1.2,2.2,3,2.2c1.5,0,3.1-0.6,4.4-1.7c1.2-1,1.9-1.6,3.3-3.1
	c0-0.1,0.1-0.1,0.1-0.2c0.2-0.3,0.5-0.6,0.6-1.1c0-0.1,1-5.2,1-5.2l1.9-8.3L52,57.6c-3.4-3.4-2.8-7.9-2-9.8c1-2.5,2.7-3.9,4.9-4.1
	l1.5-6.9c0,0,0-0.1,0.1-0.3c0.1-0.4,0.4-0.7,0.8-0.8c0.1-0.1,0.3-0.1,0.3-0.1l3.4-1.3l0.2-0.1c0.6-0.2,1.2,0.4,1.1,0.9
	c0,0.1,0,0.2,0,0.2l-4,16.7L57,57.7c0,0,1.9,0.6,3.1,0.6c4,0,9-2.7,12.9-4.6c2-1,8.9-4.7,14.2-4.6c0.8-3.8,2-9.4,3-15.5
	c0.4-2.5,0.6-4,1-7.5c0.4-4.3-1-6.9-2.3-8.3c-1.4-1.5-3-2.1-4-2.1c-0.8,0-1.3,0.3-1.5,0.8c-0.1,0.2-0.1,0.6,0,0.8
	c0.6,1.2,0.4,3-1.1,3.9c-0.4,0.2-0.9,0.3-1.4,0.3c-0.9,0-1.7-0.4-2.1-1c-1.7-2.6,1.2-7.5,5.8-7.4c0.3,0,0.6,0,0.9,0.1
	c1.4,0.2,3,0.8,4.6,2.5c4,4.6,4.9,14.4,2.9,29.2l-0.2,1.5c-0.2,1.1-0.3,2-0.4,3l0,0l0.3,0.1c0.4,0.1,0.8,0.2,1.2,0.4
	c0.8,0.3,1.2,0.7,1.1,1.1c0,0.1-0.1,0.5-0.7,0.5l0,0c-0.2,0-0.4,0-0.7-0.1l-1.3-0.3l0,0c0,0.1,0,0.1,0,0.2
	C88.6,70.4,80.3,90.6,67.2,90.6z M78.6,61.8c-1.4,0-3,0.7-4.6,2c-4.1,3-9.4,14.6-8.6,20.6c0.2,1.7,1,2.7,2.1,3.2
	c0.5,0.2,1.1,0.3,1.6,0.3c3.7,0,6.8-4,8.8-7.4c2.6-4.6,4.3-9.9,4.9-13.3l0.5-2.4c-0.3-0.8-1.1-1.7-1.9-2.2
	C80.5,62.1,79.6,61.8,78.6,61.8z M51.4,84.1c-0.3,2-0.3,3.4,1.6,3.5c0.9,0,2.1-0.5,3.5-1.6c0.9-0.7,2-1.7,3.4-3.2l0.3-0.3
	c0,0,0.1-0.1,0.1-0.2V82c0.1-3.4,1-6.8,2.8-10.3c1.8-3.6,4.2-6.5,6.9-8.8s5.6-3.5,8.5-3.5c2.2,0,4.1,0.7,5.6,2l0,0
	c0-0.1,0.1-0.1,0.1-0.2c0.6-1.9,1.6-6,2.6-10.6c-1.5,0.2-3.2,0.5-5.1,1.1c-2,0.6-6.2,2.6-11.2,5.3c-4.1,2.1-7.9,3.7-11.5,3.6
	c-1,0-1.8-0.1-2.6-0.4C56.4,60.2,51.5,83.6,51.4,84.1z M52.7,16.2c-0.1,0.1-0.1,0.1-0.2,0.2c-0.4,0.6-0.9,1.3-1.2,1.9
	c-6,14.8-9.3,30.9-12.6,46.5c-0.2,1-0.4,1.9-0.6,2.9c0.4-0.9,0.9-1.8,1.2-2.5c0.7-1.5,1.2-2.5,1.4-2.8c0.4-0.9,0.9-1.8,1.3-2.6
	c0.4-0.9,0.9-1.7,1.3-2.6c3.2-6.7,6.8-14.4,9.7-22.3c0.1-0.2,0.1-0.4,0.2-0.6c0.2-0.6,1.2-3.9,1.5-4.7c0.1-0.2,0.1-0.4,0.2-0.5
	c0.9-3.1,1.7-6.4,1.4-9.6c-0.1-1-0.3-2.3-0.9-3.3c0-0.1-0.1-0.2-0.1-0.2C54.8,15.1,53.7,15,52.7,16.2z M54.6,45.6
	c-0.8,0.2-1.4,0.7-1.8,1.1C51,48.5,51,52,52.6,54.6l0.5-2.6L54.6,45.6z"/>
</svg>
