<?xml version="1.0" encoding="utf-8"?>
<!-- Generator: Adobe Illustrator 27.5.0, SVG Export Plug-In . SVG Version: 6.00 Build 0)  -->
<svg version="1.1" id="Layer_1" xmlns="http://www.w3.org/2000/svg" xmlns:xlink="http://www.w3.org/1999/xlink" x="0px" y="0px"
	 viewBox="0 0 816 90" style="enable-background:new 0 0 816 90;" xml:space="preserve">
<style type="text/css">
	.st0{fill:#282625;}
</style>
<g>
	<path class="st0" d="M35.1,17.9v68.8H19V17.9H0.4V4.1h53.3v13.9H35.1z"/>
	<path class="st0" d="M84,36.1h35v-32h16.1v82.7h-16.1V49.9H84v36.8H67.8V4.1H84V36.1z"/>
	<path class="st0" d="M174.6,48.9L146.2,4.1h19.1l17.7,28.8l17.7-28.8h19.1l-29.1,44.9v37.8h-16.1V48.9z"/>
</g>
<g>
	<path class="st0" d="M497.6,4.1c11.5,0,21.6,1.2,30.8,8.1c10,7.6,15.9,19.6,15.9,33.4c0,13.8-5.7,25.7-16.6,33.4
		c-9.7,6.8-18.7,7.9-30.3,7.9H476V4.1H497.6z M492.1,72.9h5c4.1,0,13-0.2,20.2-5.5c6.6-4.7,10.3-13.1,10.3-21.9
		c0-8.7-3.6-17.1-10.2-22.1c-6.7-5-14.9-5.5-20.3-5.5h-5V72.9z"/>
	<path class="st0" d="M643.4,45.5c0,25.2-18.1,43.2-44.1,43.2s-44.1-18-44.1-43.2c0-25.2,18.1-43.3,44.1-43.3S643.4,20.3,643.4,45.5
		z M626.8,45.5c0-16.7-11.4-28.6-27.5-28.6s-27.5,11.9-27.5,28.6c0,16.7,11.4,28.5,27.5,28.5S626.8,62.2,626.8,45.5z"/>
	<path class="st0" d="M703.5,69.4h-33.4l-7.3,17.4h-17.5L681,4.1h12.6l34.6,82.7h-17.4L703.5,69.4z M698.8,56.3L687,26.5l-11.8,29.8
		H698.8z"/>
	<path class="st0" d="M737.9,86.8V4.1H749l50.3,55.2V4.1h16.1v82.7h-11.2L754,31.5v55.3H737.9z"/>
</g>
</svg>
